<svg width="54" height="88" viewBox="0 0 54 88" fill="none" xmlns="http://www.w3.org/2000/svg">
<path d="M2 42H10L15.36 68.78C15.5429 69.7008 16.0438 70.5279 16.7751 71.1166C17.5064 71.7053 18.4214 72.018 19.36 72H38.8C39.7386 72.018 40.6536 71.7053 41.3849 71.1166C42.1162 70.5279 42.6171 69.7008 42.8 68.78L46 52H12M20 82C20 83.1046 19.1046 84 18 84C16.8954 84 16 83.1046 16 82C16 80.8954 16.8954 80 18 80C19.1046 80 20 80.8954 20 82ZM42 82C42 83.1046 41.1046 84 40 84C38.8954 84 38 83.1046 38 82C38 80.8954 38.8954 80 40 80C41.1046 80 42 80.8954 42 82Z" stroke="#1E1E1E" stroke-width="4" stroke-linecap="round" stroke-linejoin="round"/>
<g clip-path="url(#clip0_3_61)">
<path d="M22 38V42M22 26V30M38 38V42M38 26V30M30 42V46M30 30V34M46 33.16C48.1025 32.2392 49.8242 30.6231 50.8762 28.5831C51.9281 26.543 52.2463 24.2032 51.7772 21.9564C51.3081 19.7095 50.0804 17.6924 48.3001 16.2437C46.5198 14.7949 44.2953 14.0027 42 14H39.48C38.846 11.545 37.6377 9.2759 35.9546 7.3796C34.2715 5.48331 32.1619 4.01416 29.7995 3.09325C27.4372 2.17234 24.8898 1.82604 22.3674 2.08289C19.8449 2.33974 17.4196 3.1924 15.2914 4.57057C13.1632 5.94874 11.3929 7.81297 10.1266 10.0096C8.86029 12.2062 8.13414 14.6723 8.00802 17.2047C7.8819 19.7371 8.35942 22.2631 9.40121 24.5747C10.443 26.8863 12.0192 28.9172 14 30.5" stroke="#1E1E1E" stroke-width="4" stroke-linecap="round" stroke-linejoin="round"/>
</g>
<defs>
<clipPath id="clip0_3_61">
<rect width="48" height="48" fill="white" transform="translate(6)"/>
</clipPath>
</defs>
</svg>
